<svg xmlns="http://www.w3.org/2000/svg" width="50" height="50" viewBox="0 0 50 50"><rect width="100%" height="100%" fill="#DDDDDD"/><path fill="#999999" d="M11.795 19.915v7.82h-1.57v-7.82h1.57Zm1.44 2.01h1.45l.07.77q.28-.42.7-.65.42-.23.97-.23.56 0 .96.25.4.25.6.74.27-.46.7-.73.43-.26 1.01-.26.86 0 1.35.59.5.6.5 1.81v3.52h-1.57v-3.52q0-.66-.21-.92-.22-.26-.64-.26-.33 0-.58.15-.24.15-.39.41 0 .1.01.17V27.735h-1.56v-3.52q0-.65-.21-.91-.22-.27-.65-.27-.32 0-.56.12-.23.12-.39.34v4.24h-1.56v-5.81Zm14.49 5.81h-1.56q-.09-.2-.15-.42-.06-.22-.09-.45-.24.42-.64.7-.39.28-.94.28-.91 0-1.41-.47-.49-.47-.49-1.28 0-.85.66-1.32.65-.47 1.92-.47h.87v-.46q0-.42-.22-.65-.22-.23-.65-.23-.38 0-.59.18-.2.19-.2.51h-1.52v-.03q-.04-.74.64-1.27.67-.54 1.77-.54 1.05 0 1.7.53.65.53.65 1.51v2.4q0 .41.06.77.06.36.19.71Zm-3-1.05q.41 0 .74-.2.32-.21.43-.47v-.83h-.87q-.5 0-.76.25t-.26.61q0 .29.19.47.2.17.53.17Zm3.69-1.69v-.12q0-1.37.6-2.22.6-.84 1.68-.84.49 0 .86.22t.63.63l.13-.74h1.35v5.78q0 1.14-.75 1.76-.74.62-2.07.62-.44 0-.93-.12-.49-.12-.91-.33l.29-1.17q.36.17.73.26.37.08.81.08.65 0 .95-.26.3-.27.3-.84v-.53q-.25.33-.6.5-.35.17-.8.17-1.07 0-1.67-.78-.6-.79-.6-2.07Zm1.57-.12v.12q0 .76.26 1.2.26.43.84.43.36 0 .6-.13.25-.13.4-.38v-2.53q-.15-.26-.4-.4-.24-.15-.59-.15-.58 0-.84.51-.27.51-.27 1.33Zm7.45 2.97q-1.25 0-2-.8-.76-.81-.76-2.05v-.21q0-1.3.72-2.14.71-.83 1.9-.83 1.18 0 1.83.71.65.71.65 1.92v.85h-3.47l-.01.03q.04.58.38.95.35.37.93.37.52 0 .87-.11.34-.1.75-.33l.42.97q-.35.29-.93.48-.57.19-1.28.19Zm-.14-4.82q-.43 0-.68.33-.26.34-.31.88l.01.02h1.92v-.13q0-.5-.23-.8-.23-.3-.71-.3Z"/></svg>